<svg xmlns="http://www.w3.org/2000/svg" width="388" height="381" fill="none" viewBox="0 0 388 381">
  <path fill="#E74A4A" d="M19.387 309.271l1.726-210.43 64.479-5.925c18.422-1.693 34.843.987 49.263 8.038 14.516 6.946 25.789 17.752 33.818 32.419 8.03 14.57 11.965 31.635 11.805 51.194l-.08 9.684c-.16 19.559-4.333 37.321-12.517 53.285-8.089 15.955-19.46 28.794-34.113 38.516-14.653 9.723-31.144 15.475-49.47 17.255l-64.911 5.964zm44.616-179.278l-1.153 140.48 20.87-1.918c16.887-1.551 29.837-8.277 38.852-20.178 9.014-11.9 13.701-28.168 14.062-48.805l.092-11.129c.175-21.39-4.106-37.171-12.843-47.344-8.737-10.269-21.596-14.624-38.58-13.063l-21.3 1.957zM190.707 57.554l196.432-18.05-2.116 257.997-196.432 18.05z"/>
  <path fill="#fff" d="M320.981 226.947c.067-8.19-2.76-14.188-8.482-17.995-5.72-3.903-16.045-7.576-30.974-11.018-14.927-3.539-26.738-7.267-35.43-11.186-23.69-10.725-35.445-27.023-35.266-48.894.093-11.37 3.343-21.778 9.748-31.224 6.502-9.551 15.723-17.379 27.662-23.482 12.035-6.112 25.488-9.852 40.36-11.218 14.969-1.376 28.283.145 39.944 4.561 11.662 4.32 20.666 11.147 27.013 20.48 6.443 9.325 9.613 20.298 9.51 32.92l-43.178 3.968c.079-9.635-2.882-16.825-8.883-21.569-6.001-4.84-14.47-6.757-25.409-5.752-10.554.969-18.776 3.987-24.666 9.054-5.89 4.97-8.864 11.116-8.925 18.439-.056 6.841 3.304 12.261 10.078 16.259 6.871 3.99 16.958 7.396 30.262 10.217 24.502 5.162 42.321 12.72 53.457 22.672 11.136 9.952 16.637 23.119 16.503 39.498-.15 18.211-7.128 33.149-20.934 44.816-13.805 11.57-32.318 18.422-55.538 20.556-16.119 1.481-30.776-.109-43.968-4.77-13.193-4.757-23.248-11.968-30.168-21.634-6.824-9.675-10.18-21.305-10.069-34.891l43.322-3.98c-.191 23.22 13.531 33.561 41.164 31.022 10.267-.944 18.296-3.751 24.087-8.423 5.791-4.769 8.718-10.911 8.78-18.426z"/>
</svg>
