<svg xmlns="http://www.w3.org/2000/svg" width="391" height="187" fill="none" viewBox="0 0 391 187">
  <path fill="#fff" d="M5.24 102.357l.42-51.186 15.684-1.441c4.481-.412 8.475.24 11.983 1.955 3.53 1.69 6.273 4.318 8.226 7.886 1.953 3.544 2.91 7.695 2.871 12.452l-.019 2.356c-.04 4.757-1.054 9.078-3.045 12.96-1.967 3.882-4.733 7.005-8.298 9.37-3.564 2.365-7.575 3.764-12.033 4.197L5.24 102.357zm10.853-43.608l-.28 34.17 5.075-.466c4.108-.378 7.258-2.014 9.451-4.908 2.193-2.895 3.333-6.852 3.42-11.872l.023-2.707c.043-5.203-.999-9.041-3.124-11.516-2.125-2.498-5.253-3.557-9.384-3.178l-5.181.477zm63.872 26.203l-18.414 1.692-3.588 10.868-11.168 1.026L66.19 45.61l9.733-.894 18.66 49.432-11.168 1.026-3.45-10.221zM64.456 77.84L77.2 76.67l-6.25-18.571-6.494 19.742zm61.429.01c.017-1.991-.671-3.45-2.063-4.376-1.391-.95-3.903-1.843-7.534-2.68-3.631-.861-6.504-1.768-8.618-2.721-5.763-2.609-8.622-6.573-8.578-11.893.023-2.766.813-5.298 2.371-7.595 1.582-2.324 3.824-4.228 6.728-5.712 2.928-1.487 6.2-2.397 9.818-2.729 3.641-.335 6.879.035 9.716 1.11 2.836 1.05 5.027 2.71 6.571 4.981 1.567 2.268 2.338 4.938 2.313 8.008l-10.503.965c.019-2.344-.701-4.093-2.161-5.247-1.459-1.177-3.519-1.643-6.18-1.399-2.567.236-4.567.97-6 2.203-1.433 1.208-2.156 2.703-2.171 4.485-.014 1.664.804 2.982 2.451 3.955 1.672.97 4.125 1.799 7.361 2.485 5.96 1.255 10.295 3.094 13.004 5.515 2.708 2.42 4.046 5.623 4.014 9.607-.037 4.43-1.734 8.063-5.092 10.901-3.358 2.815-7.861 4.481-13.51 5-3.92.36-7.486-.026-10.695-1.16-3.208-1.157-5.655-2.911-7.338-5.262-1.66-2.353-2.476-5.182-2.449-8.487l10.538-.968c-.047 5.648 3.291 8.163 10.013 7.546 2.497-.23 4.45-.913 5.859-2.05 1.409-1.16 2.12-2.653 2.135-4.481zm59.055 7.994l-10.503.965.18-21.937-20.48 1.882-.18 21.937-10.502.965.42-51.186 10.502-.965-.17 20.741 20.48-1.882.17-20.741 10.503-.965-.42 51.186z"/>
  <path fill="#E74A4A" d="M2.607 111.592l384.38-35.32-.516 62.998L2.09 174.59z"/>
  <path fill="#fff" d="M31.232 153.496c.017-1.992-.671-3.451-2.063-4.377-1.391-.949-3.903-1.842-7.534-2.68-3.631-.86-6.504-1.767-8.618-2.721-5.763-2.608-8.622-6.573-8.578-11.893.022-2.765.813-5.297 2.37-7.595 1.582-2.323 3.825-4.227 6.73-5.712 2.927-1.486 6.2-2.396 9.817-2.728 3.64-.335 6.88.035 9.716 1.109 2.836 1.051 5.027 2.712 6.57 4.982 1.568 2.268 2.339 4.937 2.314 8.007l-10.503.965c.02-2.343-.701-4.092-2.16-5.246-1.46-1.177-3.52-1.644-6.181-1.399-2.567.236-4.568.97-6 2.202-1.433 1.209-2.156 2.704-2.171 4.485-.014 1.664.803 2.983 2.451 3.955 1.672.971 4.125 1.799 7.361 2.486 5.96 1.255 10.295 3.093 13.003 5.514 2.71 2.421 4.047 5.624 4.014 9.608-.036 4.429-1.733 8.063-5.091 10.901-3.358 2.814-7.862 4.481-13.51 5-3.92.36-7.486-.026-10.695-1.16-3.209-1.157-5.655-2.911-7.338-5.262-1.66-2.354-2.476-5.183-2.449-8.487l10.538-.969c-.047 5.649 3.291 8.164 10.013 7.546 2.497-.229 4.45-.912 5.859-2.049 1.408-1.159 2.12-2.653 2.135-4.482zm59.64-16.475c-.04 5.039-.964 9.538-2.769 13.498-1.805 3.96-4.373 7.123-7.704 9.49-3.308 2.365-7.097 3.744-11.368 4.136-4.225.388-7.986-.285-11.283-2.019-3.297-1.735-5.84-4.405-7.63-8.011-1.79-3.63-2.676-7.904-2.659-12.824l.021-2.531c.041-5.039.976-9.551 2.805-13.536 1.852-4.011 4.432-7.187 7.739-9.529 3.331-2.367 7.12-3.745 11.368-4.136 4.248-.39 8.009.295 11.283 2.055 3.297 1.735 5.829 4.441 7.594 8.119 1.79 3.653 2.663 7.988 2.622 13.003l-.019 2.285zm-10.623-1.342c.044-5.367-.88-9.357-2.77-11.97-1.891-2.614-4.61-3.757-8.158-3.431-3.525.324-6.255 1.956-8.191 4.898-1.937 2.918-2.938 7.038-3.005 12.36l-.02 2.496c-.044 5.226.88 9.193 2.77 11.9 1.89 2.707 4.633 3.895 8.227 3.565 3.524-.324 6.243-1.956 8.156-4.895 1.913-2.962 2.903-7.105 2.97-12.427l.02-2.496zm28.627 15.636l22.301-2.049-.07 8.472-32.803 3.015.42-51.186 10.502-.965-.35 42.713zm66.447-48.787l-.277 33.714c-.045 5.601-1.832 10.192-5.36 13.771-3.504 3.577-8.279 5.644-14.324 6.199-5.951.547-10.664-.601-14.139-3.443-3.475-2.842-5.225-7.026-5.25-12.55l.28-34.101 10.503-.965-.277 33.784c-.028 3.352.746 5.728 2.32 7.129 1.598 1.375 3.809 1.933 6.633 1.674 5.905-.543 8.929-3.935 9.074-10.178l.279-34.065 10.538-.969zm46.912 4.226l-15.614 1.435-.35 42.643-10.503.965.35-42.643-15.404 1.415.07-8.542 41.521-3.816-.07 8.543zm16.839 41.064l-10.502.965.419-51.186 10.503-.965-.42 51.186zm51.839-29.178c-.042 5.039-.965 9.538-2.77 13.498-1.805 3.96-4.373 7.123-7.704 9.49-3.308 2.365-7.097 3.743-11.368 4.136-4.224.388-7.985-.285-11.283-2.02-3.297-1.734-5.841-4.404-7.63-8.01-1.79-3.63-2.676-7.904-2.659-12.824l.021-2.531c.041-5.039.976-9.551 2.805-13.536 1.852-4.011 4.432-7.187 7.739-9.529 3.331-2.367 7.121-3.745 11.368-4.136 4.248-.39 8.009.295 11.283 2.055 3.297 1.734 5.829 4.44 7.594 8.119 1.789 3.653 2.663 7.987 2.622 13.003l-.018 2.285zm-10.624-1.342c.044-5.367-.88-9.357-2.77-11.971-1.891-2.613-4.611-3.756-8.158-3.43-3.524.324-6.255 1.956-8.191 4.898-1.937 2.918-2.938 7.038-3.005 12.36l-.021 2.496c-.043 5.226.881 9.193 2.771 11.9 1.89 2.707 4.633 3.895 8.227 3.565 3.524-.324 6.243-1.956 8.156-4.895 1.913-2.963 2.903-7.105 2.97-12.427l.021-2.496zm59.505 21.265l-10.502.965-20.169-31.8-.276 33.678-10.503.965.42-51.185 10.503-.965 20.203 31.867.277-33.75 10.467-.961-.42 51.186zm35.714-16.701c.017-1.992-.671-3.451-2.063-4.377-1.391-.95-3.902-1.843-7.534-2.68-3.631-.861-6.504-1.768-8.618-2.721-5.762-2.609-8.622-6.573-8.578-11.893.023-2.766.813-5.297 2.371-7.595 1.582-2.324 3.824-4.228 6.728-5.712 2.928-1.487 6.2-2.397 9.818-2.729 3.641-.335 6.88.035 9.716 1.11 2.837 1.05 5.027 2.711 6.571 4.981 1.567 2.268 2.338 4.938 2.313 8.008l-10.503.965c.019-2.344-.701-4.093-2.161-5.246-1.459-1.178-3.519-1.644-6.18-1.4-2.567.236-4.567.97-6 2.203-1.433 1.209-2.156 2.704-2.171 4.485-.013 1.664.804 2.982 2.452 3.955 1.671.97 4.124 1.799 7.36 2.485 5.96 1.256 10.295 3.094 13.004 5.515 2.708 2.421 4.046 5.623 4.014 9.607-.037 4.43-1.734 8.064-5.092 10.901-3.358 2.815-7.861 4.482-13.509 5.001-3.921.36-7.486-.027-10.696-1.161-3.208-1.157-5.654-2.911-7.338-5.262-1.659-2.353-2.476-5.182-2.449-8.487l10.538-.968c-.046 5.648 3.291 8.163 10.013 7.546 2.497-.23 4.45-.913 5.859-2.049 1.409-1.16 2.12-2.654 2.135-4.482z"/>
</svg>
