<svg xmlns="http://www.w3.org/2000/svg" width="585" height="85" fill="none" viewBox="0 0 585 85">
  <path fill="#fff" d="M4.57 67V15.812h15.75c4.5 0 8.52 1.02 12.059 3.06 3.562 2.015 6.34 4.898 8.332 8.648 1.992 3.726 2.988 7.968 2.988 12.726v2.356c0 4.757-.984 8.988-2.953 12.691-1.945 3.703-4.7 6.574-8.262 8.613-3.562 2.04-7.582 3.07-12.058 3.094H4.57zm10.547-42.645v34.172h5.098c4.125 0 7.277-1.347 9.457-4.043 2.18-2.695 3.293-6.55 3.34-11.566v-2.707c0-5.203-1.078-9.14-3.235-11.813-2.156-2.695-5.308-4.043-9.457-4.043h-5.203zm64.406 32.098H61.031L57.516 67H46.3l19.055-51.188h9.773L94.289 67H83.074l-3.55-10.547zM63.88 47.91h12.797l-6.434-19.16-6.363 19.16zm61.734 5.66c0-1.992-.703-3.515-2.109-4.57-1.406-1.078-3.938-2.203-7.594-3.375-3.656-1.195-6.551-2.367-8.683-3.516-5.813-3.14-8.72-7.37-8.72-12.691 0-2.766.774-5.227 2.321-7.383 1.57-2.18 3.809-3.879 6.715-5.098 2.93-1.218 6.211-1.828 9.844-1.828 3.656 0 6.914.668 9.773 2.004 2.86 1.313 5.074 3.176 6.645 5.59 1.593 2.414 2.39 5.156 2.39 8.227h-10.547c0-2.344-.738-4.16-2.214-5.45-1.477-1.312-3.551-1.968-6.223-1.968-2.578 0-4.582.55-6.012 1.652-1.429 1.078-2.144 2.508-2.144 4.29 0 1.663.832 3.058 2.496 4.183 1.687 1.125 4.16 2.18 7.418 3.164 6 1.804 10.371 4.043 13.113 6.715 2.742 2.672 4.113 6 4.113 9.984 0 4.43-1.675 7.91-5.027 10.441-3.352 2.508-7.863 3.762-13.535 3.762-3.938 0-7.524-.715-10.758-2.144-3.234-1.453-5.707-3.434-7.418-5.942-1.688-2.508-2.531-5.414-2.531-8.719h10.582c0 5.649 3.375 8.473 10.125 8.473 2.508 0 4.465-.504 5.871-1.512 1.406-1.03 2.109-2.46 2.109-4.289zM185.027 67H174.48V45.062h-20.566V67h-10.547V15.812h10.547v20.743h20.566V15.813h10.547V67z"/>
  <path fill="#E74A4A" d="M195.762 9.223h386v63h-386z"/>
  <path fill="#fff" d="M224.875 53.793c0-1.992-.703-3.515-2.109-4.57-1.407-1.078-3.938-2.203-7.594-3.375-3.656-1.195-6.551-2.367-8.684-3.516-5.812-3.14-8.718-7.37-8.718-12.691 0-2.766.773-5.227 2.32-7.383 1.57-2.18 3.808-3.879 6.715-5.098 2.929-1.218 6.211-1.828 9.843-1.828 3.657 0 6.914.668 9.774 2.004 2.859 1.313 5.074 3.176 6.644 5.59 1.594 2.414 2.391 5.156 2.391 8.227H224.91c0-2.344-.738-4.16-2.215-5.45-1.476-1.312-3.55-1.968-6.222-1.968-2.578 0-4.582.55-6.012 1.652-1.43 1.078-2.145 2.508-2.145 4.289 0 1.664.832 3.059 2.496 4.184 1.688 1.125 4.161 2.18 7.418 3.164 6 1.804 10.372 4.043 13.114 6.715 2.742 2.671 4.113 6 4.113 9.984 0 4.43-1.676 7.91-5.027 10.441-3.352 2.508-7.864 3.762-13.535 3.762-3.938 0-7.524-.715-10.758-2.145-3.235-1.453-5.707-3.433-7.418-5.941-1.688-2.508-2.531-5.414-2.531-8.719h10.582c0 5.649 3.375 8.473 10.125 8.473 2.507 0 4.464-.504 5.871-1.512 1.406-1.031 2.109-2.46 2.109-4.289zm59.801-11.004c0 5.04-.891 9.457-2.672 13.254-1.781 3.797-4.336 6.727-7.664 8.79-3.305 2.062-7.102 3.093-11.391 3.093-4.242 0-8.027-1.02-11.355-3.059-3.328-2.039-5.906-4.945-7.735-8.718-1.828-3.797-2.754-8.157-2.777-13.078v-2.532c0-5.039.902-9.469 2.707-13.289 1.828-3.844 4.395-6.785 7.699-8.824 3.328-2.063 7.125-3.094 11.391-3.094s8.051 1.031 11.355 3.094c3.328 2.039 5.895 4.98 7.7 8.824 1.828 3.82 2.742 8.239 2.742 13.254v2.285zm-10.688-2.32c0-5.367-.961-9.445-2.883-12.234-1.921-2.79-4.664-4.184-8.226-4.184-3.539 0-6.27 1.383-8.191 4.148-1.922 2.743-2.895 6.774-2.918 12.094v2.496c0 5.227.96 9.282 2.882 12.164 1.922 2.883 4.688 4.325 8.297 4.325 3.539 0 6.258-1.383 8.156-4.149 1.899-2.789 2.86-6.844 2.883-12.164v-2.496zm28.899 18.281h22.394v8.473H292.34V16.035h10.547V58.75zm66.375-42.715V49.75c0 5.602-1.758 10.031-5.274 13.29-3.492 3.257-8.273 4.886-14.343 4.886-5.977 0-10.723-1.582-14.239-4.746-3.515-3.164-5.308-7.512-5.379-13.043V16.035h10.547V49.82c0 3.352.797 5.801 2.391 7.348 1.617 1.524 3.844 2.285 6.68 2.285 5.929 0 8.941-3.117 9.035-9.351V16.035h10.582zm47.179 8.543h-15.679v42.645h-10.547V24.578h-15.469v-8.543h41.695v8.543zm17.262 42.645h-10.547V16.035h10.547v51.188zm51.856-24.434c0 5.04-.891 9.457-2.672 13.254-1.782 3.797-4.336 6.727-7.664 8.79-3.305 2.062-7.102 3.093-11.391 3.093-4.242 0-8.027-1.02-11.355-3.059-3.329-2.039-5.907-4.945-7.735-8.718-1.828-3.797-2.754-8.157-2.777-13.078v-2.532c0-5.039.902-9.469 2.707-13.289 1.828-3.844 4.394-6.785 7.699-8.824 3.328-2.063 7.125-3.094 11.391-3.094 4.265 0 8.05 1.031 11.355 3.094 3.328 2.039 5.895 4.98 7.699 8.824 1.829 3.82 2.743 8.239 2.743 13.254v2.285zm-10.688-2.32c0-5.367-.961-9.445-2.883-12.234-1.922-2.79-4.664-4.184-8.226-4.184-3.539 0-6.27 1.383-8.192 4.148-1.922 2.743-2.894 6.774-2.918 12.094v2.496c0 5.227.961 9.282 2.883 12.164 1.922 2.883 4.688 4.325 8.297 4.325 3.539 0 6.258-1.383 8.156-4.149 1.899-2.789 2.86-6.844 2.883-12.164v-2.496zm59.977 26.754h-10.547l-20.531-33.68v33.68h-10.547V16.035h10.547l20.566 33.75v-33.75h10.512v51.188zm35.754-13.43c0-1.992-.704-3.515-2.11-4.57-1.406-1.078-3.937-2.203-7.594-3.375-3.656-1.195-6.55-2.367-8.683-3.516-5.813-3.14-8.719-7.37-8.719-12.691 0-2.766.774-5.227 2.32-7.383 1.571-2.18 3.809-3.879 6.715-5.098 2.93-1.218 6.211-1.828 9.844-1.828 3.656 0 6.914.668 9.773 2.004 2.86 1.313 5.075 3.176 6.645 5.59 1.594 2.414 2.391 5.156 2.391 8.227h-10.547c0-2.344-.739-4.16-2.215-5.45-1.477-1.312-3.551-1.968-6.223-1.968-2.578 0-4.582.55-6.011 1.652-1.43 1.078-2.145 2.508-2.145 4.289 0 1.664.832 3.059 2.496 4.184 1.688 1.125 4.16 2.18 7.418 3.164 6 1.804 10.371 4.043 13.113 6.715 2.742 2.671 4.114 6 4.114 9.984 0 4.43-1.676 7.91-5.028 10.441-3.351 2.508-7.863 3.762-13.535 3.762-3.937 0-7.523-.715-10.758-2.145-3.234-1.453-5.707-3.433-7.418-5.941-1.687-2.508-2.531-5.414-2.531-8.719h10.582c0 5.649 3.375 8.473 10.125 8.473 2.508 0 4.465-.504 5.871-1.512 1.406-1.031 2.11-2.46 2.11-4.289z"/>
</svg>
